<svg width="30" height="50" viewBox="0 0 30 50" fill="none" xmlns="http://www.w3.org/2000/svg">
<g filter="url(#filter0_i)">
<path d="M20.8762 13.9299C17.4009 19.151 14.0163 24.6109 10.7222 30.3097C11.4799 29.9144 12.3281 29.6344 13.2669 29.4697C14.2221 29.2885 14.8892 29.1979 15.268 29.1979C15.6633 29.1979 16.001 29.2144 16.281 29.2473C16.5609 29.2638 16.9151 29.3544 17.3433 29.5191C17.788 29.6673 18.1668 29.8814 18.4797 30.1614C19.2374 30.8365 19.6162 31.7922 19.6162 33.0274C19.6162 34.2626 19.2786 35.6213 18.6033 37.1038C17.9445 38.5695 17.0386 40.0435 15.8857 41.526C14.7492 43.0082 13.4975 44.3918 12.1304 45.6766C10.7799 46.9446 9.32223 47.9825 7.75754 48.7894C6.19285 49.5966 4.73521 50 3.38465 50C2.7588 50 2.03408 49.5966 1.21057 48.7894C0.403524 47.9825 0 46.92 0 45.6024C0 44.2849 0.568228 42.2425 1.70468 39.4755C2.84113 36.7085 4.21643 33.9004 5.8305 31.0507C7.46108 28.185 9.11634 25.3933 10.7963 22.6756C12.4928 19.958 13.9339 17.7345 15.1198 16.0051C16.3057 14.2758 17.0303 13.2793 17.2939 13.0158C17.5574 12.7522 18.0351 12.5299 18.7268 12.3487C19.435 12.1676 20.0444 12.0852 20.555 12.1017C21.0656 12.1017 21.3209 12.3323 21.3209 12.7934C21.3209 13.0899 21.1726 13.4687 20.8762 13.9299ZM14.2057 37.6472C14.881 36.4612 15.2186 35.3825 15.2186 34.4107C15.2186 33.4389 14.9057 32.9532 14.2798 32.9532C13.6704 32.9532 12.7234 33.2251 11.4387 33.7685C10.1704 34.2954 9.44576 34.5591 9.26459 34.5591C9.08342 34.5591 8.8446 34.4107 8.54813 34.1142C5.33641 39.8954 3.73053 43.5846 3.73053 45.1825C3.73053 45.9235 3.96935 46.2943 4.44701 46.2943C5.58346 46.2943 7.22226 45.3471 9.36339 43.4531C11.5045 41.5425 13.1187 39.607 14.2057 37.6472Z" fill="#07B4FE"/>
<path d="M16.6404 18.0765L18.8409 12.3953L21.0415 14.6379L16.6404 18.0765Z" fill="#086E8D"/>
<path d="M29.9506 0.787252L25.2583 17.0356C25.1412 17.4385 24.6824 17.5973 24.3625 17.3472C24.0657 17.1145 16.526 11.2046 16.1174 10.8844L10.652 8.65184C10.4293 8.56087 10.2828 8.3346 10.2832 8.08236C10.2836 7.83008 10.4313 7.60425 10.6543 7.51446L29.1929 0.040218C29.4169 -0.0504484 29.6732 0.0147878 29.8341 0.209606C29.9637 0.366825 30.0091 0.584931 29.9506 0.787252Z" fill="#36B4DB"/>
<path d="M29.9505 0.787281L25.2582 17.0357C25.1411 17.4386 24.6823 17.5973 24.3624 17.3472L17.0527 11.6176L29.834 0.209656C29.9636 0.366854 30.009 0.584994 29.9505 0.787281Z" fill="#61A7C5"/>
<path d="M29.8175 1.02858L19.3755 12.6624L16.9524 17.7413C16.8309 17.995 16.5606 18.1252 16.3036 18.0597C16.0436 17.9947 15.8601 17.7494 15.8601 17.4671V10.3462C15.8601 10.1488 15.9505 9.96397 16.1028 9.84942L29.0644 0.112991C29.3063 -0.0689899 29.6394 -0.027153 29.834 0.209668C30.029 0.446478 30.0217 0.801096 29.8175 1.02858Z" fill="#58CDFF"/>
<path d="M29.8175 1.02856L19.3755 12.6624L16.9524 17.7412C16.8309 17.995 16.5606 18.1252 16.3036 18.0597C16.0436 17.9947 15.8601 17.7494 15.8601 17.467L17.0528 11.6176L29.834 0.209656C30.029 0.44646 30.0217 0.801111 29.8175 1.02856Z" fill="#2ABFFF"/>
</g>
<defs>
<filter id="filter0_i" x="0" y="0" width="29.9757" height="54" filterUnits="userSpaceOnUse" color-interpolation-filters="sRGB">
<feFlood flood-opacity="0" result="BackgroundImageFix"/>
<feBlend mode="normal" in="SourceGraphic" in2="BackgroundImageFix" result="shape"/>
<feColorMatrix in="SourceAlpha" type="matrix" values="0 0 0 0 0 0 0 0 0 0 0 0 0 0 0 0 0 0 127 0" result="hardAlpha"/>
<feOffset dy="4"/>
<feGaussianBlur stdDeviation="2"/>
<feComposite in2="hardAlpha" operator="arithmetic" k2="-1" k3="1"/>
<feColorMatrix type="matrix" values="0 0 0 0 0 0 0 0 0 0 0 0 0 0 0 0 0 0 0.25 0"/>
<feBlend mode="normal" in2="shape" result="effect1_innerShadow"/>
</filter>
</defs>
</svg>
